<svg xmlns="http://www.w3.org/2000/svg" width="32" height="32" viewBox="0 0 179.2 179.99503"><path d="M6.057 178.596c-1.51-.77-3.49-2.415-4.4-3.657C.007 172.69 0 172.365 0 89.997 0 7.628.006 7.306 1.657 5.056c.91-1.242 2.89-2.888 4.4-3.657C8.615.093 14.254 0 89.6 0s80.985.094 83.543 1.4c1.51.768 3.49 2.414 4.4 3.656 1.65 2.25 1.657 2.573 1.657 84.942 0 82.368-.006 82.69-1.657 84.94-.91 1.243-2.89 2.89-4.4 3.658-2.558 1.305-8.197 1.4-83.543 1.4s-80.985-.095-83.543-1.4zm164.88-7.122c1.4-1.266 1.463-4.838 1.463-81.337 0-73.33-.11-80.136-1.324-81.476C169.81 7.263 166.238 7.2 89.74 7.2c-73.33 0-80.136.11-81.477 1.324C6.863 9.787 6.8 13.36 6.8 89.86c0 73.33.11 80.134 1.324 81.475 1.266 1.398 4.838 1.463 81.337 1.463 73.33 0 80.136-.11 81.477-1.324zm-55.447-22.41c-2.36-1.613-9.034-6.293-14.832-10.4-5.798-4.106-10.8-7.466-11.115-7.466-.315 0-3.49 2.8-7.058 6.222-3.567 3.422-7.65 6.703-9.072 7.29-3.555 1.47-7.676.557-10.01-2.218-1.043-1.24-4.558-9.547-7.812-18.464-4.513-12.37-6.303-16.362-7.553-16.844-.9-.347-4.77-1.358-8.6-2.248C25.33 101.66 18 96.032 18 88.482c0-5.642-.823-5.25 63.43-30.124 63.736-24.673 63.86-24.712 69.944-21.825 3.383 1.606 5.82 5.313 5.823 8.86.005 4.21-18.615 80.98-23.227 95.767-3.46 11.092-9.832 13.818-18.48 7.904zm10.04-6.066c.642-.99 2.978-8.64 5.193-17C135.776 106.918 150 47.726 150 45.773c0-2.196-1.617-3.375-4.627-3.375-3.437 0-119.39 44.762-120 46.325-.662 1.693 3.828 5.26 9.138 7.257 2.58.97 8.072 2.424 12.205 3.23 4.133.805 7.79 1.91 8.126 2.454.338.545 3.39 8.582 6.785 17.862 6.194 16.934 7.076 18.872 8.59 18.872.45 0 4.475-3.6 8.947-8 4.808-4.732 8.764-7.988 9.684-7.97.855.018 8.574 5.044 17.154 11.17 8.58 6.125 16.222 11.15 16.982 11.168.76.017 1.906-.778 2.548-1.768zm-54.876-15.6C69.13 125.61 58.772 97.76 58.788 95.495c.007-.936.462-2.06 1.012-2.5 1.14-.908 69.23-40.078 73.207-42.112 2.015-1.03 2.98-1.135 4.247-.457 3.94 2.11 2.27 4.168-23.654 29.16l-24.8 23.908-6.25 11.63c-3.438 6.397-6.632 12.09-7.098 12.652-1.196 1.44-3.394 1.268-4.798-.378zm7.672-19.697c4.197-7.824 5.236-9.062 18.262-21.756 7.597-7.403 13.272-13.25 12.612-12.996-1.29.5-41.696 23.68-42.26 24.244-.327.325 6.277 18.806 6.72 18.806.118 0 2.218-3.734 4.666-8.297z" fill="#E81D62"/></svg>