<?xml version="1.0" encoding="UTF-8" standalone="no"?>
<!-- Created with Inkscape (http://www.inkscape.org/) -->

<svg
   xmlns:dc="http://purl.org/dc/elements/1.1/"
   xmlns:cc="http://creativecommons.org/ns#"
   xmlns:rdf="http://www.w3.org/1999/02/22-rdf-syntax-ns#"
   xmlns:svg="http://www.w3.org/2000/svg"
   xmlns="http://www.w3.org/2000/svg"
   xmlns:sodipodi="http://sodipodi.sourceforge.net/DTD/sodipodi-0.dtd"
   xmlns:inkscape="http://www.inkscape.org/namespaces/inkscape"
   width="24.341681mm"
   height="23.275032mm"
   viewBox="0 0 24.341681 23.275032"
   version="1.1"
   id="svg8"
   inkscape:version="0.92.1 r15371"
   sodipodi:docname="32.svg">
  <defs
     id="defs2" />
  <sodipodi:namedview
     id="base"
     pagecolor="#ffffff"
     bordercolor="#666666"
     borderopacity="1.0"
     inkscape:pageopacity="0.0"
     inkscape:pageshadow="2"
     inkscape:zoom="2.8"
     inkscape:cx="30.055908"
     inkscape:cy="120.77348"
     inkscape:document-units="mm"
     inkscape:current-layer="layer1"
     showgrid="false"
     fit-margin-top="0"
     fit-margin-left="0"
     fit-margin-right="0"
     fit-margin-bottom="0"
     inkscape:window-width="1920"
     inkscape:window-height="1013"
     inkscape:window-x="-9"
     inkscape:window-y="-9"
     inkscape:window-maximized="1" />
  <metadata
     id="metadata5">
    <rdf:RDF>
      <cc:Work
         rdf:about="">
        <dc:format>image/svg+xml</dc:format>
        <dc:type
           rdf:resource="http://purl.org/dc/dcmitype/StillImage" />
        <dc:title></dc:title>
      </cc:Work>
    </rdf:RDF>
  </metadata>
  <g
     inkscape:label="Layer 1"
     inkscape:groupmode="layer"
     id="layer1"
     transform="translate(-104.3017,-152.19666)">
    <path
       style="fill:#008080;stroke-width:0.26458332"
       d="m 108.00629,174.92602 c -1.60014,-0.72543 -2.33172,-1.444 -3.07514,-3.02047 -0.61623,-1.30675 -0.62389,-1.43054 -0.62645,-10.12686 l -0.003,-8.80395 0.70922,-0.26964 c 1.39684,-0.53108 2.89478,-0.57768 4.40998,-0.1372 l 1.49538,0.43472 v 8.6036 8.60359 l 0.68379,0.68379 c 0.63765,0.63764 0.71355,0.6541 1.12449,0.24388 0.37985,-0.37918 0.46003,-1.36093 0.58081,-7.11196 0.15641,-7.44864 0.2618,-7.95282 2.04482,-9.78261 1.38573,-1.42207 3.25383,-2.04942 6.09322,-2.04624 3.70385,0.004 5.76229,1.2808 6.79791,4.21604 0.32836,0.93068 0.40206,2.73028 0.40206,9.81704 v 8.67747 l -0.96226,0.31757 c -0.97987,0.32339 -4.498,0.24213 -5.07961,-0.11733 -0.22292,-0.13777 -0.3092,-2.32626 -0.31204,-7.91388 -0.004,-7.97555 -0.0832,-8.63577 -1.11329,-9.27903 -0.98342,-0.61414 -1.12454,0.0924 -1.27762,6.39662 -0.16782,6.91166 -0.33447,7.58564 -2.3045,9.31972 -1.51832,1.33647 -3.22254,1.84818 -6.13049,1.84072 -1.70713,-0.004 -2.56114,-0.13913 -3.4577,-0.54559 z m 17.05427,-13.16942 c -0.20347,-4.03529 -0.44015,-4.53543 -2.14631,-4.53543 -0.96626,0 -0.96664,4.5e-4 -0.46302,0.55654 0.4684,0.5172 0.50946,1.12192 0.58096,8.55493 l 0.0769,7.9984 0.98139,0.24246 0.9814,0.24246 0.0834,-4.7625 c 0.0459,-2.61937 0.003,-6.35296 -0.0948,-8.29686 z m 2.1108,12.66904 0.67868,-0.25804 -0.001,-7.34873 c -8.3e-4,-4.10645 -0.11878,-7.77104 -0.26735,-8.3059 -0.6426,-2.3134 -2.19241,-3.61031 -4.61287,-3.86012 -2.66124,-0.27466 -5.03459,1.20855 -5.68573,3.55328 -0.15265,0.54968 -0.27937,3.49973 -0.2816,6.55567 -0.004,5.28266 -0.0349,5.62243 -0.6299,6.90028 -0.34422,0.73922 -1.02767,1.67094 -1.51878,2.07048 -0.80404,0.65414 -0.82708,0.70796 -0.23147,0.54068 1.08014,-0.30336 1.94005,-0.81857 2.69795,-1.61647 1.37362,-1.44611 1.53665,-2.27709 1.71894,-8.76204 l 0.1689,-6.00837 0.7068,-0.70681 c 0.89161,-0.89161 2.62501,-1.18905 4.10013,-0.70357 1.91363,0.62981 1.98349,0.98913 1.98396,10.20405 2.5e-4,4.78754 0.0998,8.00364 0.24777,8.00364 0.13605,0 0.55277,-0.11611 0.92604,-0.25803 z m -15.46091,-0.2906 c 1.84867,-0.42094 3.1231,-1.40444 3.85394,-2.97413 0.61449,-1.3198 0.63891,-1.59496 0.64139,-7.22879 l 0.003,-5.85677 0.7367,-1.41019 c 1.01831,-1.94927 2.76388,-2.88357 5.38744,-2.88357 1.01847,0 2.2667,0.17676 2.81405,0.39849 l 0.98369,0.39849 -0.64617,-0.50414 c -2.18651,-1.70589 -7.03661,-1.35821 -9.27602,0.66495 -1.73161,1.56441 -1.88849,2.33467 -1.93934,9.52136 -0.0407,5.76009 -0.0907,6.39793 -0.56227,7.17751 -1.42193,2.35079 -4.99091,2.08005 -6.29507,-0.47755 -0.40899,-0.80208 -0.46265,-1.79908 -0.46302,-8.60191 l -4.1e-4,-7.69467 -0.92604,-0.28421 -0.92604,-0.28421 v 7.99759 7.99758 l 0.7276,1.42299 c 1.24802,2.44078 3.08576,3.25903 5.88698,2.62118 z m -0.52917,-1.98932 c 0,-0.0862 -0.23812,-0.45943 -0.52916,-0.82943 -0.50351,-0.64011 -0.52917,-1.07336 -0.52917,-8.93472 v -8.26198 l -1.19062,0.27245 -1.19063,0.27245 0.002,7.16532 c 8.2e-4,3.94093 0.1197,7.59088 0.26418,8.11101 0.38086,1.37101 1.38688,2.19576 2.8432,2.33091 0.1819,0.0169 0.33073,-0.0398 0.33073,-0.12601 z m -2.52592,-18.60348 c 0.44177,-0.17282 0.39376,-0.22677 -0.33073,-0.37167 -0.46613,-0.0932 -1.22889,-0.0932 -1.69502,0 -0.72449,0.1449 -0.7725,0.19885 -0.33073,0.37167 0.28423,0.11118 0.81444,0.20216 1.17824,0.20216 0.3638,0 0.89401,-0.091 1.17824,-0.20216 z"
       id="path3691"
       inkscape:connector-curvature="0" />
  </g>
</svg>
